<svg xmlns="http://www.w3.org/2000/svg" viewBox="0 0 841.89 595.28"><defs><style>.a,.s{fill:#fff;}.a,.j{stroke:#231f20;stroke-miterlimit:10;}.b{font-size:20px;}.b,.j,.k,.r{fill:#231f20;}.b,.k{font-family:MyriadPro-Regular, Myriad Pro;}.c{letter-spacing:0.01em;}.d{letter-spacing:0em;}.e{letter-spacing:0.03em;}.f{letter-spacing:0em;}.g{letter-spacing:0em;}.h{letter-spacing:0em;}.i{letter-spacing:0.02em;}.k{font-size:19px;}.l{letter-spacing:0.01em;}.m{letter-spacing:0em;}.n{letter-spacing:0.01em;}.o{letter-spacing:-0.01em;}.p{letter-spacing:-0.01em;}.q{letter-spacing:0em;}</style></defs><title>Cards</title><rect class="a" x="38.78" y="312.94" width="162" height="252"/><rect class="a" x="38.78" y="30.33" width="162" height="252"/><rect class="a" x="239.56" y="312.94" width="162" height="252"/><rect class="a" x="239.56" y="30.33" width="162" height="252"/><rect class="a" x="440.33" y="312.94" width="162" height="252"/><rect class="a" x="440.33" y="30.33" width="162" height="252"/><rect class="a" x="641.11" y="312.94" width="162" height="252"/><rect class="a" x="641.11" y="30.33" width="162" height="252"/><rect class="a" x="252.06" y="48.87" width="136.41" height="136.41"/><circle class="a" cx="320.26" cy="185.28" r="14.58"/><rect class="a" x="51.58" y="48.87" width="136.41" height="136.41"/><text class="b" transform="translate(47.96 244.97)"><tspan class="c">S</tspan><tspan class="d" x="9.98" y="0">e</tspan><tspan class="e" x="20" y="0">r</tspan><tspan class="f" x="27.04" y="0">v</tspan><tspan x="36.58" y="0">a</tspan><tspan class="g" x="46.22" y="0">n</tspan><tspan class="d" x="57.24" y="0">t of </tspan><tspan class="h" x="89.16" y="0">A</tspan><tspan class="i" x="101.34" y="0">r</tspan><tspan class="d" x="108.36" y="0">thur</tspan></text><circle class="a" cx="119.78" cy="185.28" r="14.58"/><rect class="a" x="51.58" y="331.48" width="136.41" height="136.41"/><circle class="a" cx="119.78" cy="467.89" r="14.58"/><rect class="a" x="252.35" y="331.48" width="136.41" height="136.41"/><circle class="j" cx="320.56" cy="467.89" r="14.58"/><rect class="a" x="453.13" y="331.48" width="136.41" height="136.41"/><circle class="j" cx="521.33" cy="467.89" r="14.58"/><rect class="a" x="653.91" y="331.48" width="136.41" height="136.41"/><circle class="a" cx="722.11" cy="467.89" r="14.58"/><rect class="a" x="453.13" y="48.87" width="136.41" height="136.41"/><circle class="a" cx="521.33" cy="185.28" r="14.58"/><rect class="a" x="653.91" y="48.87" width="136.41" height="136.41"/><circle class="a" cx="722.11" cy="185.28" r="14.58"/><text class="b" transform="translate(246.98 244.97)"><tspan class="c">S</tspan><tspan class="d" x="9.98" y="0">e</tspan><tspan class="e" x="20" y="0">r</tspan><tspan class="f" x="27.04" y="0">v</tspan><tspan x="36.58" y="0">a</tspan><tspan class="g" x="46.22" y="0">n</tspan><tspan class="d" x="57.24" y="0">t of </tspan><tspan class="h" x="89.16" y="0">A</tspan><tspan class="i" x="101.34" y="0">r</tspan><tspan class="d" x="108.36" y="0">thur</tspan></text><text class="b" transform="translate(453.13 244.97)"><tspan class="c">S</tspan><tspan class="d" x="9.98" y="0">e</tspan><tspan class="e" x="20" y="0">r</tspan><tspan class="f" x="27.04" y="0">v</tspan><tspan x="36.58" y="0">a</tspan><tspan class="g" x="46.22" y="0">n</tspan><tspan class="d" x="57.24" y="0">t of </tspan><tspan class="h" x="89.16" y="0">A</tspan><tspan class="i" x="101.34" y="0">r</tspan><tspan class="d" x="108.36" y="0">thur</tspan></text><text class="b" transform="translate(653.91 244.97)"><tspan class="c">S</tspan><tspan class="d" x="9.98" y="0">e</tspan><tspan class="e" x="20" y="0">r</tspan><tspan class="f" x="27.04" y="0">v</tspan><tspan x="36.58" y="0">a</tspan><tspan class="g" x="46.22" y="0">n</tspan><tspan class="d" x="57.24" y="0">t of </tspan><tspan class="h" x="89.16" y="0">A</tspan><tspan class="i" x="101.34" y="0">r</tspan><tspan class="d" x="108.36" y="0">thur</tspan></text><text class="b" transform="translate(47.67 527.59)"><tspan class="c">S</tspan><tspan class="d" x="9.98" y="0">e</tspan><tspan class="e" x="20" y="0">r</tspan><tspan class="f" x="27.04" y="0">v</tspan><tspan x="36.58" y="0">a</tspan><tspan class="g" x="46.22" y="0">n</tspan><tspan class="d" x="57.24" y="0">t of </tspan><tspan class="h" x="89.16" y="0">A</tspan><tspan class="i" x="101.34" y="0">r</tspan><tspan class="d" x="108.36" y="0">thur</tspan></text><text class="k" transform="translate(246.17 527.59)"><tspan class="l">M</tspan><tspan class="m" x="15.5" y="0">inion of </tspan><tspan class="n" x="79.95" y="0">M</tspan><tspan x="95.34" y="0">o</tspan><tspan class="o" x="105.77" y="0">r</tspan><tspan x="111.79" y="0">d</tspan><tspan class="p" x="122.51" y="0">r</tspan><tspan class="q" x="128.53" y="0">ed</tspan></text><text class="k" transform="translate(446.95 527.59)"><tspan class="l">M</tspan><tspan class="m" x="15.5" y="0">inion of </tspan><tspan class="n" x="79.95" y="0">M</tspan><tspan x="95.34" y="0">o</tspan><tspan class="o" x="105.77" y="0">r</tspan><tspan x="111.79" y="0">d</tspan><tspan class="p" x="122.51" y="0">r</tspan><tspan class="q" x="128.53" y="0">ed</tspan></text><text class="k" transform="translate(647.73 527.59)"><tspan class="l">M</tspan><tspan class="m" x="15.5" y="0">inion of </tspan><tspan class="n" x="79.95" y="0">M</tspan><tspan x="95.34" y="0">o</tspan><tspan class="o" x="105.77" y="0">r</tspan><tspan x="111.79" y="0">d</tspan><tspan class="p" x="122.51" y="0">r</tspan><tspan class="q" x="128.53" y="0">ed</tspan></text><path class="r" d="M88.25,81.38l-.4,24.91c0,3.22,5,3.22,5,0l.4-24.91c0-3.22-5-3.22-5,0Z"/><path class="r" d="M141.72,81.68q-.36,13.08-1.32,26.12c-.23,3.21,4.77,3.2,5,0q1-13,1.32-26.12c.09-3.22-4.91-3.21-5,0Z"/><path class="r" d="M89.14,137.91c-1.86,5.79-.88,13.24,6.45,13.43,6.9.17,12.19-5.11,14.52-11.16h-4.82c1.68,6.85,5.65,12.71,13.5,12.27s10.06-7.82,10.22-14.55c.07-3.22-4.93-3.22-5,0-.11,4.7-1.26,10.59-7.43,9.45-4.35-.8-5.55-4.78-6.47-8.5-.63-2.6-4-2.15-4.82,0a11.43,11.43,0,0,1-6.77,7c-1.47.47-3.74,1.06-4.91-.5s-.12-4.65.35-6.1c1-3.07-3.84-4.38-4.82-1.33Z"/><path class="r" d="M293.24,90.33c.13-.12.58-.68.81-.41s.17.23,0,.47-.39.27-.65.22c-.48-.1-.47-.72-.66-.83l0-.12c-.31.27-.38.37-.21.31-.37,0-.67-.42-.75-.08,0,0,.36,1.45.32,1.43.17-.47.36-.64.59-.51h0s-.42-.21-.48-.27a2.36,2.36,0,0,1-.39-.69c.07.14-.22.33-.3.36,3.05-1,1.75-5.8-1.33-4.83-5.31,1.69-3.56,8.78,1,10.19a4.47,4.47,0,0,0,5.5-2.26A7.07,7.07,0,0,0,296,87,4.38,4.38,0,0,0,290,85.67a5.07,5.07,0,0,0-2,6c1.63,4.79,8.47,5.38,10.6.69a5.22,5.22,0,0,0-1.94-6.62c-2.48-1.55-5-.74-7,1.09-2.39,2.16,1.15,5.69,3.54,3.54Z"/><path class="r" d="M347.46,88.43c0,.08.45-.51.44-.51-.14.59-1.4-1.71-1.12-1a.76.76,0,0,1-.21.19c-.27.07-.14.11.41.12a1.17,1.17,0,0,1-.28,1.26c.07-.11.18-.14.35-.11.4.12.15-.12-.75-.73-.07-.46.19-.4-.06-.45-.06,0-.83.13-.93.13h-.55c-.43-.11-.36.16.19.81l-.64,1.11-1,.19a2.53,2.53,0,0,0,3.08-1.75,2.57,2.57,0,0,0-1.75-3.08,3.62,3.62,0,0,0-4.71,3.18,4.44,4.44,0,0,0,3.91,4.43,7.26,7.26,0,0,0,5.82-1.32,4.52,4.52,0,0,0,1.1-5.48c-2.23-4-9.38-1.59-8.53,3a4.53,4.53,0,0,0,4.34,3.7,5.43,5.43,0,0,0,4.85-3.31,4,4,0,0,0-2.53-5.66c-2.41-.68-4.49.84-5.73,2.78-1.75,2.71,2.58,5.22,4.31,2.52Z"/><path class="r" d="M302.51,130.66c3.7,5.8,11.11,11.94,18.51,11.26,8-.74,5.82-12.31,2.77-16.69l-3.42,3.42c4.38,2.28,21.32,12.78,24,4,2.45-8.14-5.08-17.31-12-20.27-2.92-1.25-5.47,3.06-2.52,4.32a16.31,16.31,0,0,1,6.29,4.46c1.41,1.7,4.57,6.83,3.41,9.19-.65,1.34-4.61-.49-6.45-1.18a92.05,92.05,0,0,1-10.19-4.83c-2.05-1.07-4.95,1.23-3.42,3.42,1.2,1.72,3.4,5.7,1.95,7.87-1.1,1.66-4,.82-5.34.29a19.06,19.06,0,0,1-9.25-7.77c-1.73-2.71-6.05-.2-4.32,2.52Z"/><path class="r" d="M490,75.49c10.89-4.23,19.74,4.58,24.15,13.7,2.23,4.62,4.15,10.32,2.9,15.48-1.32,5.43-6.06,8.55-11.25,9.71-9.94,2.23-21.16-2.28-25.92-11.46-5.05-9.76-1.33-21.36,8.73-25.91,2.93-1.32.39-5.63-2.53-4.31-12.25,5.54-16.7,20.2-10.88,32.06s20.66,17.79,33.29,14.09c29.4-8.62,6-58.2-19.82-48.18-3,1.15-1.67,6,1.33,4.82Z"/><path class="r" d="M544.17,78.77c10.47-5.24,18.76,8.37,21.31,16.59,1.41,4.53,2.92,11-1.11,14.66-3,2.68-7.63,3.39-11.43,4-10,1.68-20.77-.62-23.72-11.69-2.47-9.27,3.75-18.15,12.43-21.11,3-1,1.72-5.87-1.33-4.83-11.24,3.84-19.14,15.28-15.92,27.27,4,14.72,18.43,17.47,31.61,14.86,5.51-1.09,11.48-2.9,14.33-8.19,3-5.62,1.26-13.08-.86-18.67-4.16-11-15-23.67-27.83-17.22-2.88,1.44-.35,5.75,2.52,4.31Z"/><path class="r" d="M497.05,97.37c.13.21.1.12-.09-.29,0,.18.05.15,0-.11s0-.29,0-.1c.08-.45.09-.57.05-.37s0,.08.15-.32a.82.82,0,0,1-.12.2l.25-.32c-.19.17-.11.11.23-.18s.52-.2.33-.14-.07,0,.34-.06a1.32,1.32,0,0,1,.75.2l-.12-.07c.32.26.38.3.2.12l.23.29c.14.4.18.47.1.22a1.55,1.55,0,0,1,0,.8,2.75,2.75,0,0,0-.25-1.93,2.58,2.58,0,0,0-1.5-1.15,2.53,2.53,0,0,0-3.07,1.75,4,4,0,0,0,1.05,3.66,3.8,3.8,0,0,0,3.66,1,3.9,3.9,0,0,0,2.16-5.7,2.5,2.5,0,0,0-4.32,2.53Z"/><path class="r" d="M545.55,101.33l-1.48-.19-.64-.63-.23-.91.24-.91a1.85,1.85,0,0,1,1-.8,1.71,1.71,0,0,1,1,.1c.41.16-.1-.14.21.13a.59.59,0,0,1,.27.25c.12.17.14.19.07.08s.12.48.1.22c0-.11-.05-.23-.07-.34a2.51,2.51,0,0,0-1.15-1.5,2.51,2.51,0,0,0-3.42.9,2.9,2.9,0,0,0-.25,1.92,3.68,3.68,0,0,0,5.44,2.68,3.19,3.19,0,0,0-2.42-5.82,2.52,2.52,0,0,0-1.75,3.08,2.56,2.56,0,0,0,3.08,1.74Z"/><path class="r" d="M494.44,134.45c-2.15,8.62,8.05,15.15,15.36,16.53,8.82,1.67,12.8-5.08,13.79-12.78l-4.66,1.27c2.58,5.72,10.83,11.68,17.27,11.18,7.77-.61,8.57-8.1,7.49-14.34-.55-3.16-5.37-1.82-4.82,1.33.27,1.55.85,4.15.15,5.73-1.74,3.88-5.8,2.15-8.15.79-3-1.71-6.19-4-7.62-7.22-1.15-2.55-4.39-.86-4.66,1.26-.67,5.22-3,9.17-8.87,7.65-3.91-1-11.74-4.94-10.46-10.07.78-3.12-4-4.45-4.82-1.33Z"/><path class="r" d="M689.05,103.85c1.22-2.78,2.49-5.53,3.85-8.24.7-1.4,2.63-6.16,3.55-6.63l-1.93.25c.34.13,1.71,3.22,2,3.72.72,1.25,1.4,2.52,2.11,3.78a52,52,0,0,0,4.82,7.14c2,2.5,5.54-1.06,3.53-3.54a71,71,0,0,1-6.14-9.9c-1.13-2-2.6-5.84-5.31-6.07s-3.94,3-5,5c-2.1,3.91-4,7.9-5.79,12-1.28,2.92,3,5.47,4.32,2.53Z"/><path class="r" d="M740.39,105.8c1.58-5.13,3.49-12.45,7.39-16.36l-2.43.64c2.16.43,6.29,7.39,7.53,9.07,2.38,3.22,4.63,6.52,6.81,9.88,1.74,2.69,6.07.19,4.31-2.52-2.79-4.32-5.73-8.53-8.86-12.61-2-2.63-4.64-7.73-8-8.55s-4.86,3.15-6.09,5.54a83.53,83.53,0,0,0-5.45,13.58c-1,3.08,3.87,4.4,4.82,1.33Z"/><path class="r" d="M695.06,130.69c1.47,7.51,7.07,15.47,15.08,16.85,8.36,1.44,11.77-6.07,12.4-13.07l-4.66,1.26c2.54,5.4,7.82,12.3,14.61,11.64,7-.69,8.23-8.34,8-14-.11-3.21-5.11-3.23-5,0,.15,4.06-1.06,11.57-6.92,8-3-1.83-4.94-5-6.39-8.11-1.16-2.47-4.46-1-4.66,1.26s-.53,5.25-2.22,6.9c-2.79,2.73-6.43.89-8.92-1a17.53,17.53,0,0,1-6.52-11c-.61-3.15-5.43-1.82-4.82,1.33Z"/><path class="r" d="M94.6,371.21a178.74,178.74,0,0,1,.33,21c-.13,3.22,4.87,3.21,5,0a178.74,178.74,0,0,0-.33-21c-.24-3.19-5.24-3.22-5,0Z"/><path class="r" d="M135.17,372.07a111.94,111.94,0,0,1,.48,19.63c-.21,3.21,4.79,3.2,5,0a111.94,111.94,0,0,0-.48-19.63c-.35-3.16-5.36-3.2-5,0Z"/><path class="r" d="M103.57,414.49c.24,3.2,2,6.07,5.38,6.66a6.61,6.61,0,0,0,4.36-.77,35.4,35.4,0,0,0,2.66-2.51c.28,0,2,2.82,2.52,3.17a6.71,6.71,0,0,0,5,1.1,6.61,6.61,0,0,0,5.19-7.16c-.18-3.2-5.18-3.22-5,0l-3,1.14-.42-.78c-.37-.29-.72-1.16-1.08-1.55a4.26,4.26,0,0,0-5.44-.92c-.54.33-.88.93-1.36,1.29a8,8,0,0,0-.48.66q-.95,1.77-3.36-.33c-.24-3.19-5.24-3.21-5,0Z"/><path class="r" d="M290.49,383.26c.09-.48-.26.21,0-.15a1.13,1.13,0,0,1-.57.42c.28-.07.25-.07-.08,0l-.74-.2a1.08,1.08,0,0,1-.39-.43c.11.19.12.2,0,0a1.64,1.64,0,0,1,0-.93c.25-.57.65-.68,1.14-.85q.36,0,0,0a.92.92,0,0,1,.52.1,1.54,1.54,0,0,1,.86,1.4l-.73,1.77a1.41,1.41,0,0,1-.89.4c-.36-.07-.45-.08-.26,0l-.22-.08a1.31,1.31,0,0,1-.21-2.17,1.4,1.4,0,0,1,1.88.48c-.23-.35.1.33.1.48s-.34.86-.1.51a2.52,2.52,0,0,0-.89-3.42,2.56,2.56,0,0,0-3.42.9c-1.86,2.72.93,6.7,4.13,5.71a4,4,0,0,0,2.81-3.66A3.72,3.72,0,0,0,291,380a3.67,3.67,0,0,0-4.06,1.11c-1.18,1.52-.25,3.7,1.3,4.53a3.78,3.78,0,0,0,4.14-.31,3.66,3.66,0,0,0,1-4.33,3.89,3.89,0,0,0-4.34-2.36,4.29,4.29,0,0,0-3.34,3.3,2.56,2.56,0,0,0,1.75,3.08,2.53,2.53,0,0,0,3.07-1.75Z"/><path class="r" d="M341.43,369.93c1,1.66-.56,3.42-1.95,2.95l-.39-.17c.21.13.14.07-.23-.19.32.29-.33-.5-.11-.15s.07.13-.12-.28l.06.22-.07-.43c0,.26,0,.15.06-.32a1.6,1.6,0,0,1-.05.21l.15-.39c-.13.21-.07.13.19-.23s.44-.32.22-.19l.39-.17c-.25.07-.14.06.34,0h-.18c-.2,0-.07,0,.38.06a.9.9,0,0,1-.22-.06c.4.18.51.23.33.14-.47-.25.4.38.11.07.25.36.32.45.22.28s0-.06.14.34.05.53.05.26c-.08.42-.09.53,0,.34s0-.09-.13.28q.21-.33-.15.18c.31-.34-.49.26-.08,0-.4.15-.47.18-.22.11a1.36,1.36,0,0,1-.8,0,2.75,2.75,0,0,0,1.93-.25,2.56,2.56,0,0,0,1.15-1.49,2.6,2.6,0,0,0-.25-1.93,2.37,2.37,0,0,0-1.5-1.15,4.24,4.24,0,0,0-2.12.1,4.4,4.4,0,0,0-1.65,1,4,4,0,0,0-1,3.8,4.09,4.09,0,0,0,5.84,2.35,4,4,0,0,0,.75-6.21,3.47,3.47,0,0,0-3.58-.94,3,3,0,0,0-1.78,4.33,2.5,2.5,0,1,0,4.32-2.52Z"/><path class="r" d="M300,423.66c15.62-10.48,34.34-25.36,54.18-24,3.21.22,3.2-4.78,0-5-20.89-1.44-40.29,13.65-56.7,24.67-2.66,1.79-.16,6.12,2.52,4.32Z"/><path class="r" d="M325.13,405.23c1.76,4.93,5.44,13.35,12.06,12.12,7.42-1.38,6.72-10,4.93-15.38-1-3-5.84-1.73-4.82,1.33.64,1.92,2.93,9.89-1.66,9.05-2.94-.55-4.84-6.07-5.69-8.45-1.07-3-5.9-1.71-4.82,1.33Z"/><path class="r" d="M481.07,377.37c-.08-.42,0,.16,0,.16s0-.4,0-.42c0-.29-.12.43,0,.16s.08-.28.13-.41l-2.42,1.84c.27,0,.18,0-.26-.06.25.06.18,0-.22-.13.23.13.17.07-.17-.17.18.18.13.11-.14-.21a1.44,1.44,0,0,1,.9-2.18l1.93.26-.25-.13c.29.25.37.31.23.18s-.09-.05.16.24a1.58,1.58,0,0,1-.15-.24l-1.49,3.67a1.39,1.39,0,0,1-.92-.08c-.86-.1-1.33-.71-1.43-1.81a2.71,2.71,0,0,0,.73,1.77,2.57,2.57,0,0,0,1.77.73A2.53,2.53,0,0,0,482,378a3.13,3.13,0,0,0-1.47-2.59,3,3,0,0,0-2.51-.34,2.54,2.54,0,0,0-1.49,3.67,3.82,3.82,0,0,0,3.06,2.09,3.38,3.38,0,0,0,3.07-2.49,3.78,3.78,0,0,0-3.85-4.68,2.59,2.59,0,0,0-2.41,1.84,5.92,5.92,0,0,0-.13,3.15,2.52,2.52,0,0,0,3.08,1.75,2.56,2.56,0,0,0,1.74-3.07Z"/><path class="r" d="M566.46,379.69l1.23-.77-3.42-.89.33-2.51.33-.26h2a1.51,1.51,0,0,1,.72.8.76.76,0,0,1,.11.38c0,.23,0,.27,0,.14s-.14.66,0,.2l-1.15,1.49c-.4.15-.51.19-.32.14s.07,0-.37.05l-.43-.07c.18.05.16,0-.07-.06s-.25-.11-.14,0,.08,0-.26-.22c.3.27-.31-.52-.12-.13v-2.52a2,2,0,0,1-.11.2c-.1.16,0,.09.17-.2a1.39,1.39,0,0,0-.26.28c-.14.19.5-.29.1-.07l-.4.22a2.52,2.52,0,0,0-.9,3.42,2.57,2.57,0,0,0,3.42.9c1.76-.85,3.4-3.05,2.18-5a3.76,3.76,0,0,0-5-1.24,3.4,3.4,0,0,0,.71,5.78c2.47,1.05,5.33-1.85,3.78-4.25a2.53,2.53,0,0,0-3.42-.89l-1.23.76a2.5,2.5,0,1,0,2.52,4.32Z"/><path class="r" d="M491,427.64c18-7.88,39.4-12.32,56.49,0,2.61,1.89,5.11-2.45,2.53-4.32-18.59-13.43-42-8.58-61.54,0-2.94,1.29-.4,5.6,2.52,4.32Z"/><path class="r" d="M519.54,420.91c-.29,3.35-.44,6.91,1.26,10a8.37,8.37,0,0,0,7,4.51c7.39,0,8.88-8.26,8.76-14-.08-3.21-5.08-3.22-5,0,.05,2.51.29,9.08-3.76,9s-3.45-6.95-3.23-9.47c.28-3.21-4.73-3.19-5,0Z"/><path class="r" d="M704.21,403c-1.53,6.92,5.88,11.82,11.69,13.66,6.5,2.05,13.67.13,17.15-6,1.6-2.8-2.72-5.33-4.31-2.53-2.26,4-6.55,5-10.79,3.88-2.84-.76-9.76-3.92-8.92-7.72.69-3.13-4.12-4.47-4.82-1.32Z"/><path class="r" d="M702.1,363.59a18.22,18.22,0,0,1-4.12,4.72l3.93,3a46.69,46.69,0,0,0,2.77-4.28c1.6-2.79-2.72-5.31-4.32-2.52a48.1,48.1,0,0,1-2.77,4.28,2.48,2.48,0,0,0,.65,3.23,2.54,2.54,0,0,0,3.28-.2,22.49,22.49,0,0,0,4.9-5.74c1.67-2.76-2.66-5.28-4.32-2.52Z"/><path class="r" d="M743,372.42l-1.74,5.8,4.91.67a14.51,14.51,0,0,1,1.11-4.19,2.57,2.57,0,0,0-.89-3.42,2.52,2.52,0,0,0-3.42.89,22.38,22.38,0,0,0-1.8,6.72,2.46,2.46,0,0,0,2.17,2.45,2.5,2.5,0,0,0,2.74-1.79l1.74-5.8c.93-3.09-3.89-4.41-4.82-1.33Z"/><path class="r" d="M715.31,415.52c-1.21,2.77-1.86,5.93-.07,8.61a7,7,0,0,0,6.83,2.78c6.41-.87,7.87-8.06,5.6-13.17a2.53,2.53,0,0,0-3.42-.9,2.56,2.56,0,0,0-.89,3.43c.82,1.85.7,5.1-1.7,5.65-2.69.62-2.87-2-2-3.87a2.59,2.59,0,0,0-.9-3.42,2.51,2.51,0,0,0-3.42.89Z"/><path class="r" d="M722.11,170.69l-1,1.22.61,1v2h.81v-2l.6-1ZM719,175.06l-.25.77a9.41,9.41,0,0,0,6.73,0l-.26-.77A8.36,8.36,0,0,1,719,175.06Zm1.9,2.11v6.47h.81v-6.47Zm1.62,0v6.47h.81v-6.47Zm-2.59,7.28-.4.81h5.17l-.41-.81Zm-4,1.62-3.09,5.66h18.64l-3.09-5.66Zm2.19.81h4.85v.81h-4.85Zm5.66,0h2.43v.81h-2.43Zm-5.66,1.62h1.61v.81h-1.61Zm2.42,0h5.67v.81h-5.67Zm-2.42,1.61h3.23v.81h-3.23Zm-7,2.43-.54,1.62h23.16l-.54-1.62Z"/><path class="r" d="M119.78,453.31l-1,1.21.6,1v2h.81v-2l.61-1Zm-3.11,4.37-.26.77a9.51,9.51,0,0,0,6.73,0l-.25-.77A8.46,8.46,0,0,1,116.67,457.68Zm1.89,2.1v6.48h.81v-6.48Zm1.62,0v6.48H121v-6.48Zm-2.58,7.28-.41.81h5.17l-.4-.81Zm-4.06,1.62-3.09,5.67H129.1L126,468.68Zm2.19.81h4.86v.81h-4.86Zm5.67,0h2.42v.81H121.4Zm-5.67,1.62h1.62v.81h-1.62Zm2.43,0h5.66v.81h-5.66Zm-2.43,1.62H119v.81h-3.24Zm-7,2.43-.54,1.62h23.16l-.55-1.62Z"/><path class="s" d="M320.56,454.56,319,460.24l1.53,1.62,1.52-1.62Zm-9.15,4.06,1.53,4.05,3.05.81Zm18.29,0-4.57,4.86,3-.81Zm-9.14,4.05-3.05,2.44-6.1,1.62c3.81.81,6.1,4.87,9.15,6.49,3-1.62,5.35-5.59,9.14-6.49l-6.1-1.44Zm-1.89,2.67,1.35.45-.35,1.06.89,2.66.88-2.66-.35-1.06,1.35-.45a3,3,0,1,1-3.77,0Zm-5.73,5.44-3.05,2.44-.76,3.24,1.52-1.62,3.05-2.43A11,11,0,0,1,312.94,470.78Zm15.23,0-.76,1.63,3,2.43,1.52,1.62-.76-3.24ZM315.22,474l-.76,3.24,2.29-2.43Zm5.34,0-2.29.81,2.29,4.06,2.28-4.06Zm5.33,0-1.53.81,2.29,2.43Z"/><path class="s" d="M521.36,454.56l-1.52,5.68,1.52,1.62,1.53-1.62Zm-9.14,4.06,1.53,4.05,3,.81Zm18.29,0-4.57,4.86,3-.81Zm-9.15,4.05-3,2.44-6.1,1.62c3.81.81,6.1,4.87,9.14,6.49,3-1.62,5.36-5.59,9.15-6.49l-6.1-1.44Zm-1.88,2.67,1.35.45-.35,1.06.88,2.66.89-2.66-.35-1.06,1.35-.45a3,3,0,1,1-3.77,0Zm-5.73,5.44-3.05,2.44-.76,3.24,1.52-1.62,3.05-2.43A11,11,0,0,1,513.75,470.78Zm15.23,0-.76,1.63,3,2.43,1.52,1.62-.76-3.24ZM516,474l-.76,3.24,2.29-2.43Zm5.33,0-2.28.81,2.28,4.06,2.29-4.06Zm5.34,0-1.53.81,2.29,2.43Z"/><circle class="j" cx="722.11" cy="467.89" r="14.58"/><path class="s" d="M722.11,454.56l-1.52,5.68,1.52,1.62,1.53-1.62ZM713,458.62l1.52,4.05,3,.81Zm18.28,0-4.57,4.86,3.05-.81Zm-9.14,4.05-3.05,2.44L713,466.73c3.81.81,6.09,4.87,9.14,6.49,3-1.62,5.36-5.59,9.14-6.49l-6.09-1.44Zm-1.88,2.67,1.35.45-.35,1.06.88,2.66.89-2.66-.36-1.06,1.35-.45a3.05,3.05,0,1,1-3.76,0Zm-5.74,5.44-3,2.44-.77,3.24,1.53-1.62,3-2.43A11,11,0,0,1,714.49,470.78Zm15.24,0-.76,1.63,3,2.43,1.52,1.62-.76-3.24Zm-13,3.25-.76,3.24,2.28-2.43Zm5.33,0-2.28.81,2.28,4.06,2.29-4.06Zm5.33,0-1.52.81,2.29,2.43Z"/><path class="r" d="M119.78,170.69l-1,1.22.6,1v2h.81v-2l.61-1Zm-3.11,4.37-.26.77a9.41,9.41,0,0,0,6.73,0l-.25-.77A8.36,8.36,0,0,1,116.67,175.06Zm1.89,2.11v6.47h.81v-6.47Zm1.62,0v6.47H121v-6.47Zm-2.58,7.28-.41.81h5.17l-.4-.81Zm-4.06,1.62-3.09,5.66H129.1L126,186.07Zm2.19.81h4.86v.81h-4.86Zm5.67,0h2.42v.81H121.4Zm-5.67,1.62h1.62v.81h-1.62Zm2.43,0h5.66v.81h-5.66Zm-2.43,1.61H119v.81h-3.24Zm-7,2.43-.54,1.62h23.16l-.55-1.62Z"/><path class="r" d="M320.56,170.69l-1,1.22.61,1v2H321v-2l.61-1Zm-3.11,4.37-.26.77a9.41,9.41,0,0,0,6.73,0l-.25-.77A8.36,8.36,0,0,1,317.45,175.06Zm1.89,2.11v6.47h.81v-6.47Zm1.62,0v6.47h.81v-6.47Zm-2.58,7.28-.41.81h5.17l-.4-.81Zm-4.06,1.62-3.09,5.66h18.65l-3.09-5.66Zm2.19.81h4.86v.81h-4.86Zm5.66,0h2.43v.81h-2.43Zm-5.66,1.62h1.62v.81h-1.62Zm2.43,0h5.66v.81h-5.66Zm-2.43,1.61h3.24v.81h-3.24Zm-7,2.43-.54,1.62h23.15l-.54-1.62Z"/><path class="r" d="M521.33,170.69l-1,1.22.61,1v2h.81v-2l.61-1Zm-3.11,4.37-.25.77a9.41,9.41,0,0,0,6.73,0l-.26-.77A8.36,8.36,0,0,1,518.22,175.06Zm1.9,2.11v6.47h.81v-6.47Zm1.62,0v6.47h.81v-6.47Zm-2.59,7.28-.4.81h5.17l-.41-.81Zm-4,1.62L512,191.73h18.65l-3.09-5.66Zm2.19.81h4.85v.81h-4.85Zm5.66,0h2.43v.81H523Zm-5.66,1.62h1.62v.81h-1.62Zm2.43,0h5.66v.81h-5.66Zm-2.43,1.61h3.23v.81h-3.23Zm-7,2.43-.54,1.62h23.15l-.54-1.62Z"/></svg>